<?xml version="1.0" encoding="utf-8"?>
<!-- Generator: Adobe Illustrator 22.0.1, SVG Export Plug-In . SVG Version: 6.00 Build 0)  -->
<svg version="1.1" baseProfile="tiny" xmlns="http://www.w3.org/2000/svg" xmlns:xlink="http://www.w3.org/1999/xlink" x="0px"
	 y="0px" viewBox="0 0 24 24" xml:space="preserve">
<g id="Form">
	<path fill="#008C46" d="M21,18c0,1.65631-1.34473,3-3,3c-1.65723,0-3-1.34369-3-3c0-0.125,0.02148-0.24323,0.03711-0.36334
		l-6.95917-3.47949C7.53851,14.67682,6.80817,15,6,15c-1.65686,0-3-1.34314-3-3s1.34314-3,3-3
		c0.80817,0,1.53845,0.32318,2.07788,0.84283l6.95923-3.47955C15.02148,6.24316,15,6.125,15,6c0-1.65619,1.34277-3,3-3
		c1.65527,0,3,1.34381,3,3c0,1.65717-1.34473,3-3,3c-0.80859,0-1.53912-0.32324-2.07812-0.84283l-6.95856,3.47882
		C8.97809,11.75671,9,11.87531,9,12s-0.02191,0.24335-0.03668,0.36401l6.95856,3.47876C16.46088,15.32318,17.19141,15,18,15
		C19.65527,15,21,16.34277,21,18z"/>
</g>
<g id="Ebene_1">
</g>
</svg>
